<?xml version="1.0" encoding="UTF-8" standalone="no"?>
<!-- Created with Inkscape (http://www.inkscape.org/) -->

<svg
   xmlns:dc="http://purl.org/dc/elements/1.1/"
   xmlns:cc="http://creativecommons.org/ns#"
   xmlns:rdf="http://www.w3.org/1999/02/22-rdf-syntax-ns#"
   xmlns:svg="http://www.w3.org/2000/svg"
   xmlns="http://www.w3.org/2000/svg"
   xmlns:sodipodi="http://sodipodi.sourceforge.net/DTD/sodipodi-0.dtd"
   xmlns:inkscape="http://www.inkscape.org/namespaces/inkscape"
   width="56"
   height="16"
   viewBox="0 0 56 16"
   version="1.1"
   id="svg8"
   inkscape:version="0.92.4 5da689c313, 2019-01-14"
   sodipodi:docname="ic_logo_with_text.svg">
  <defs
     id="defs2" />
  <sodipodi:namedview
     id="base"
     pagecolor="#ffffff"
     bordercolor="#000000"
     borderopacity="1"
     inkscape:pageopacity="0.0"
     inkscape:pageshadow="2"
     inkscape:zoom="18.782524"
     inkscape:cx="20.067353"
     inkscape:cy="0.75483705"
     inkscape:document-units="px"
     inkscape:current-layer="layer1"
     showgrid="true"
     units="px"
     inkscape:pagecheckerboard="false"
     showborder="true"
     borderlayer="true"
     inkscape:showpageshadow="false"
     inkscape:window-width="1920"
     inkscape:window-height="1047"
     inkscape:window-x="0"
     inkscape:window-y="33"
     inkscape:window-maximized="1">
    <inkscape:grid
       type="xygrid"
       id="grid815"
       color="#007ba8"
       opacity="0.18431373"
       empcolor="#007ba8"
       empopacity="0.50196078"
       visible="true"
       snapvisiblegridlinesonly="true"
       dotted="false" />
  </sodipodi:namedview>
  <metadata
     id="metadata5">
    <rdf:RDF>
      <cc:Work
         rdf:about="">
        <dc:format>image/svg+xml</dc:format>
        <dc:type
           rdf:resource="http://purl.org/dc/dcmitype/StillImage" />
        <dc:title />
      </cc:Work>
    </rdf:RDF>
  </metadata>
  <g
     inkscape:label="Layer 1"
     inkscape:groupmode="layer"
     id="layer1"
     transform="translate(0,-292.76665)">
    <path
       style="font-style:normal;font-variant:normal;font-weight:bold;font-stretch:normal;font-size:8px;line-height:1.25;font-family:'Montserrat Alternates';-inkscape-font-specification:'Montserrat Alternates Bold';letter-spacing:0px;word-spacing:0px;fill:#e0e0e0;fill-opacity:1;stroke:none"
       d="m 20,294.61431 v 5.59961 h 2.65625 c 0.72,0 1.277208,-0.15551 1.671875,-0.46485 0.394667,-0.30933 0.591797,-0.74273 0.591797,-1.30273 0,-0.53334 -0.177823,-0.94195 -0.535156,-1.22461 -0.352,-0.28267 -0.867589,-0.42383 -1.544922,-0.42383 h -1.552735 v -1.15234 h 3.232422 v -1.03125 z m 13.783203,1.23047 c -0.277333,0 -0.532911,0.0485 -0.767578,0.14453 -0.229333,0.096 -0.423984,0.23468 -0.583984,0.41601 v -0.49609 h -1.191407 v 4.30469 h 1.248047 v -2.16016 c 0,-0.37333 0.08519,-0.65318 0.25586,-0.83984 0.170666,-0.192 0.3995,-0.28907 0.6875,-0.28907 0.544,0 0.816406,0.33829 0.816406,1.01563 v 2.27344 h 1.248047 v -2.16016 c 0,-0.37333 0.08519,-0.65318 0.255859,-0.83984 0.170667,-0.192 0.401979,-0.28907 0.695313,-0.28907 0.261333,0 0.460942,0.0852 0.599609,0.25586 0.144,0.16534 0.216797,0.41843 0.216797,0.75977 v 2.27344 h 1.248047 v -2.46485 c 0,-0.63466 -0.160469,-1.10916 -0.480469,-1.42383 -0.314667,-0.32 -0.74063,-0.48046 -1.279297,-0.48046 -0.32,0 -0.616672,0.0629 -0.888672,0.18554 -0.266666,0.12267 -0.488062,0.29553 -0.664062,0.51953 -0.149334,-0.22933 -0.346464,-0.40219 -0.591797,-0.51953 -0.245333,-0.12266 -0.520219,-0.18554 -0.824219,-0.18554 z m 12.601563,0 c -0.405334,0 -0.774802,0.0921 -1.105469,0.27343 -0.325333,0.18134 -0.580912,0.43939 -0.767578,0.77539 -0.186667,0.336 -0.279297,0.72531 -0.279297,1.16797 0,0.44267 0.09263,0.83197 0.279297,1.16797 0.186666,0.336 0.442245,0.59406 0.767578,0.77539 0.330667,0.18133 0.700135,0.27344 1.105469,0.27344 0.586666,0 1.034416,-0.18721 1.34375,-0.56055 v 0.4961 h 1.191406 v -4.30469 h -1.248047 v 0.45703 c -0.309333,-0.34667 -0.737776,-0.52148 -1.287109,-0.52148 z m -20.695313,0.0644 v 2.43164 c 0,0.64 0.165427,1.12388 0.496094,1.44922 0.336,0.32533 0.788182,0.48828 1.353515,0.48828 0.261334,0 0.505042,-0.0485 0.734376,-0.14453 0.234666,-0.096 0.433749,-0.23716 0.59375,-0.42383 v 0.50391 h 1.191406 v -4.30469 h -1.248047 v 2.1289 c 0,0.384 -0.09015,0.67376 -0.271485,0.8711 -0.181333,0.192 -0.424515,0.28906 -0.728515,0.28906 -0.581333,0 -0.873047,-0.34768 -0.873047,-1.04101 v -2.24805 z m 13.917969,0 v 4.30469 h 2.294922 c 0.581333,0 1.019166,-0.10698 1.3125,-0.32032 0.293333,-0.21333 0.439453,-0.51496 0.439453,-0.90429 0,-0.512 -0.253099,-0.85277 -0.759766,-1.02344 0.202667,-0.0907 0.358177,-0.21695 0.464844,-0.37695 0.112,-0.16534 0.167969,-0.35503 0.167969,-0.56836 0,-0.352 -0.153031,-0.62246 -0.457032,-0.81446 -0.303999,-0.19733 -0.725005,-0.29687 -1.263671,-0.29687 z m 1.144531,0.84765 h 0.943359 c 0.437334,0 0.65625,0.15304 0.65625,0.45704 0,0.30933 -0.218916,0.46289 -0.65625,0.46289 h -0.943359 z m 5.847656,0.11329 c 0.314667,0 0.577157,0.10945 0.785157,0.32812 0.208,0.21333 0.310546,0.50062 0.310546,0.86328 0,0.36267 -0.102546,0.65243 -0.310546,0.8711 -0.208,0.21333 -0.47049,0.32031 -0.785157,0.32031 -0.32,0 -0.583015,-0.10698 -0.791015,-0.32031 -0.208,-0.21867 -0.3125,-0.50843 -0.3125,-0.8711 0,-0.36266 0.1045,-0.64995 0.3125,-0.86328 0.208,-0.21867 0.471015,-0.32812 0.791015,-0.32812 z m -25.3125,0.8789 h 1.296875 c 0.682667,0 1.023438,0.24566 1.023438,0.73633 0,0.25067 -0.08767,0.44284 -0.263672,0.57617 -0.176,0.128 -0.429099,0.19141 -0.759766,0.19141 h -1.296875 z m 19.464844,0.66406 h 1.070313 c 0.229333,0 0.397239,0.0411 0.503906,0.1211 0.106667,0.0747 0.160156,0.19404 0.160156,0.35937 0,0.31467 -0.228833,0.47266 -0.6875,0.47266 h -1.046875 z m -19.279297,2.80079 c -0.16,0 -0.293724,0.0535 -0.40039,0.16015 -0.106667,0.10134 -0.160157,0.23063 -0.160157,0.39063 0,0.16 0.05349,0.29372 0.160157,0.40039 0.106666,0.10133 0.24039,0.15234 0.40039,0.15234 0.16,0 0.289292,-0.051 0.390625,-0.15234 0.106667,-0.10667 0.160156,-0.24039 0.160157,-0.40039 -10e-7,-0.16 -0.05349,-0.28929 -0.160157,-0.39063 -0.101333,-0.10666 -0.230625,-0.16015 -0.390625,-0.16015 z m 1.615235,0 c -0.16,0 -0.293724,0.0535 -0.400391,0.16015 -0.101333,0.10134 -0.152344,0.23063 -0.152344,0.39063 0,0.16 0.05101,0.29372 0.152344,0.40039 0.106667,0.10133 0.240391,0.15234 0.400391,0.15234 0.16,0 0.293724,-0.051 0.40039,-0.15234 0.106667,-0.10667 0.160157,-0.24039 0.160157,-0.40039 0,-0.16 -0.05349,-0.28929 -0.160157,-0.39063 -0.106666,-0.10666 -0.24039,-0.16015 -0.40039,-0.16015 z m 19.533203,1.61523 c -0.565334,0 -1.146808,0.13124 -1.744141,0.39258 l 0.302735,0.86328 c 0.490666,-0.19733 0.945328,-0.29492 1.361328,-0.29492 0.272,0 0.479047,0.0367 0.623046,0.11133 0.149334,0.0747 0.22461,0.18164 0.22461,0.32031 0,0.13333 -0.05845,0.2334 -0.175781,0.30273 -0.117334,0.0693 -0.28524,0.10547 -0.503907,0.10547 h -0.769531 v 0.77539 h 0.880859 c 0.224,0 0.394386,0.0367 0.511719,0.11133 0.117334,0.0693 0.175781,0.17383 0.175781,0.3125 0,0.16 -0.08519,0.28629 -0.255859,0.37695 -0.165333,0.0853 -0.394167,0.12696 -0.6875,0.12696 -0.549333,0 -1.050573,-0.10946 -1.503906,-0.32813 l -0.335938,0.87305 c 0.277334,0.13867 0.578964,0.24121 0.904297,0.31055 0.325334,0.0693 0.656188,0.10546 0.992188,0.10546 0.410666,0 0.778182,-0.056 1.103515,-0.16796 0.325334,-0.11201 0.580912,-0.26999 0.767579,-0.47266 0.186666,-0.208 0.279296,-0.4487 0.279296,-0.7207 0,-0.22934 -0.07084,-0.42647 -0.214843,-0.5918 -0.138667,-0.16533 -0.335797,-0.28719 -0.591797,-0.36719 0.213333,-0.096 0.381239,-0.22476 0.503906,-0.38476 0.122667,-0.16534 0.183594,-0.34812 0.183594,-0.55079 0,-0.24533 -0.08767,-0.45929 -0.263672,-0.64062 -0.176,-0.18667 -0.419182,-0.32783 -0.728516,-0.42383 -0.304,-0.096 -0.649729,-0.14453 -1.039062,-0.14453 z m -20.316406,0.0156 c -0.437334,0 -0.833547,0.0971 -1.185547,0.28906 -0.346667,0.18666 -0.619599,0.44968 -0.822266,0.79101 C 20.099542,304.26077 20,304.64016 20,305.06149 c 0,0.42667 0.102021,0.80853 0.304688,1.14453 0.202666,0.336 0.489947,0.59902 0.863281,0.79102 0.373333,0.18666 0.801776,0.28125 1.287109,0.28125 0.778667,0 1.372011,-0.23327 1.777344,-0.69727 l -0.664063,-0.71875 c -0.149333,0.144 -0.312281,0.24903 -0.488281,0.31836 -0.170667,0.064 -0.367797,0.0977 -0.591797,0.0977 -0.282666,0 -0.52337,-0.0535 -0.720703,-0.16016 -0.192,-0.10666 -0.333161,-0.26713 -0.423828,-0.48047 l 3.183594,-0.61718 c 0,-0.448 -0.100068,-0.83287 -0.302735,-1.15821 -0.197333,-0.33066 -0.464781,-0.58324 -0.800781,-0.7539 -0.336,-0.176 -0.708474,-0.26367 -1.11914,-0.26367 z m 10.101562,0 c -0.453333,0 -0.85999,0.0971 -1.222656,0.28906 -0.357334,0.18666 -0.637177,0.4472 -0.839844,0.7832 -0.202667,0.336 -0.304688,0.71786 -0.304688,1.14453 0,0.42667 0.102021,0.80853 0.304688,1.14453 0.202667,0.336 0.48251,0.59902 0.839844,0.79102 0.362666,0.18666 0.769323,0.28125 1.222656,0.28125 0.453333,0 0.859464,-0.0946 1.216797,-0.28125 0.357333,-0.192 0.637177,-0.45502 0.839844,-0.79102 0.202666,-0.336 0.304687,-0.71786 0.304687,-1.14453 0,-0.42667 -0.102021,-0.80853 -0.304687,-1.14453 -0.202667,-0.336 -0.482511,-0.59654 -0.839844,-0.7832 -0.357333,-0.192 -0.763464,-0.28906 -1.216797,-0.28906 z m 5.003906,0 c -0.394666,0 -0.759177,0.0877 -1.089844,0.26367 -0.325333,0.17066 -0.58339,0.41385 -0.77539,0.72851 -0.192,0.31467 -0.28711,0.67723 -0.28711,1.08789 0,0.41067 0.09511,0.77323 0.28711,1.08789 0.192,0.31467 0.450057,0.56033 0.77539,0.73633 0.330667,0.17067 0.695178,0.25586 1.089844,0.25586 0.581334,0 1.034042,-0.17782 1.359375,-0.53515 v 0.18359 c 0,0.39467 -0.1045,0.68886 -0.3125,0.88086 -0.202666,0.19733 -0.519172,0.29492 -0.951172,0.29492 -0.277333,0 -0.554698,-0.0441 -0.832031,-0.13477 -0.277333,-0.0853 -0.50812,-0.20418 -0.689453,-0.35351 l -0.496094,0.89648 c 0.245334,0.192 0.556354,0.33812 0.929688,0.43946 0.373333,0.10133 0.767594,0.15234 1.183593,0.15234 0.789334,0 1.388162,-0.19217 1.798829,-0.57617 0.410666,-0.384 0.617187,-0.97043 0.617187,-1.75977 v -3.58398 h -1.183594 v 0.55273 c -0.325333,-0.41066 -0.799828,-0.61718 -1.423828,-0.61718 z m -12.019531,0.0644 v 4.30469 h 1.248047 v -1.63282 h 0.648437 l 1.152344,1.63282 h 1.470703 l -1.607422,-2.24024 1.503907,-2.06445 h -1.328125 l -1.167969,1.67187 h -0.671875 v -1.67187 z m 20.234375,0 v 2.16015 c 0,0.64534 0.165427,1.12975 0.496094,1.45508 0.330666,0.32 0.778416,0.48047 1.34375,0.48047 0.250666,0 0.484458,-0.0416 0.703125,-0.12695 0.218666,-0.0853 0.408359,-0.20914 0.568359,-0.36914 v 0.14453 c 0,0.39467 -0.09706,0.68886 -0.289062,0.88086 -0.192,0.192 -0.49611,0.28711 -0.91211,0.28711 -0.266666,0 -0.529682,-0.0416 -0.791015,-0.12696 -0.261334,-0.0853 -0.48273,-0.20418 -0.664063,-0.35351 l -0.496094,0.89648 c 0.245334,0.192 0.546964,0.33812 0.904297,0.43946 0.362667,0.10133 0.747011,0.15234 1.152344,0.15234 0.762667,0 1.344141,-0.19217 1.744141,-0.57617 0.4,-0.384 0.599609,-0.97043 0.599609,-1.75977 v -3.58398 h -1.248047 v 1.86328 c 0,0.384 -0.09015,0.67571 -0.271484,0.87305 -0.181334,0.192 -0.422037,0.28711 -0.720703,0.28711 -0.581334,0 -0.871094,-0.34821 -0.871094,-1.04688 v -1.97656 z m 5.546875,0 v 4.30469 h 1.240234 v -1.60938 h 1.871094 v 1.60938 h 1.248047 v -4.30469 h -1.248047 v 1.67969 h -1.871094 v -1.67969 z m -28.867187,0.88086 c 0.256,0 0.474916,0.0659 0.65625,0.19922 0.181333,0.13333 0.300708,0.31115 0.359374,0.53515 l -2.095703,0.40821 c 0.01067,-0.35734 0.113214,-0.63718 0.310547,-0.83985 0.197334,-0.20266 0.454865,-0.30273 0.769532,-0.30273 z m 10.101562,0.0801 c 0.32,0 0.58249,0.10945 0.785156,0.32812 0.208,0.21333 0.310547,0.50062 0.310547,0.86328 0,0.36267 -0.102547,0.65243 -0.310547,0.8711 -0.202666,0.21333 -0.465156,0.32031 -0.785156,0.32031 -0.32,0 -0.583016,-0.10698 -0.791016,-0.32031 -0.208,-0.21867 -0.3125,-0.50843 -0.3125,-0.8711 0,-0.36266 0.1045,-0.64995 0.3125,-0.86328 0.208,-0.21867 0.471016,-0.32812 0.791016,-0.32812 z m 5.251953,0 c 0.330667,0 0.598641,0.0976 0.806641,0.29492 0.213333,0.192 0.320312,0.4451 0.320312,0.75976 0,0.31467 -0.106979,0.5722 -0.320312,0.76953 -0.208,0.192 -0.475974,0.28711 -0.806641,0.28711 -0.330667,0 -0.603073,-0.0951 -0.816406,-0.28711 -0.213333,-0.19733 -0.320313,-0.45486 -0.320313,-0.76953 0,-0.31466 0.10698,-0.56776 0.320313,-0.75976 0.213333,-0.19734 0.485739,-0.29492 0.816406,-0.29492 z"
       id="path922"
       inkscape:connector-curvature="0" />
    <path
       style="fill:#2196f3;fill-opacity:1;stroke:none;stroke-width:2;stroke-linecap:round;stroke-linejoin:round;stroke-miterlimit:4;stroke-dasharray:none;stroke-opacity:0.70270272;paint-order:normal"
       d="m 9,292.82915 a 9,9 0 0 0 -2,0.47266 v 2.16015 a 7,7 0 0 1 2,-0.61328 z m 2,0.006 v 2.01172 a 7,7 0 0 1 2,0.59961 v -2.15039 a 9,9 0 0 0 -2,-0.46094 z m -1,2.93164 a 6,6 0 0 0 -6,6 6,6 0 0 0 0.5546875,2.5 6,6 0 0 0 0.6054687,1.03516 6,6 0 0 0 0.359375,0.44726 6,6 0 0 0 0.060547,0.0645 6,6 0 0 0 0.3535157,0.35742 6,6 0 0 0 0.1015621,0.0937 4,4 0 0 1 0,-0.004 6,6 0 0 0 3.964844,1.50586 6,6 0 0 0 3.962891,-1.50195 4,4 0 0 0 -0.84375,-2 A 4,4 0 0 1 10,305.76665 4,4 0 0 1 6.882812,304.27251 4,4 0 0 1 10,302.76665 a 6,6 0 0 0 3.962891,-1.50977 4,4 0 0 1 0,0.004 6,6 0 0 0 0.09961,-0.0977 6,6 0 0 0 0.289062,-0.27929 6,6 0 0 0 0.164063,-0.18946 6,6 0 0 0 0.228516,-0.27148 6,6 0 0 0 0.142578,-0.20117 6,6 0 0 0 0.193359,-0.28125 6,6 0 0 0 0.16211,-0.28711 6,6 0 0 0 0.134765,-0.24805 6,6 0 0 0 0.07031,-0.13867 6,6 0 0 0 -0.277344,-0.53125 6,6 0 0 0 -0.002,-0.002 6,6 0 0 0 -0.326172,-0.5 6,6 0 0 0 -0.002,-0.002 6,6 0 0 0 -0.07227,-0.0898 6,6 0 0 0 -0.302734,-0.37695 6,6 0 0 0 -0.421875,-0.42383 6,6 0 0 0 -0.07813,-0.0723 4,4 0 0 1 -0.002,0.006 A 6,6 0 0 0 10,295.76665 Z m 0,2 A 4,4 0 0 1 13.113281,299.2647 4,4 0 0 1 10,300.76665 6,6 0 0 0 6.037109,302.27642 4,4 0 0 1 6,301.76665 a 4,4 0 0 1 4,-4 z"
       id="path1057"
       inkscape:connector-curvature="0" />
  </g>
</svg>
