<?xml version="1.0" encoding="UTF-8" standalone="no"?>
<!-- Created with Inkscape (http://www.inkscape.org/) -->

<svg
   xmlns:dc="http://purl.org/dc/elements/1.1/"
   xmlns:cc="http://creativecommons.org/ns#"
   xmlns:rdf="http://www.w3.org/1999/02/22-rdf-syntax-ns#"
   xmlns:svg="http://www.w3.org/2000/svg"
   xmlns="http://www.w3.org/2000/svg"
   xmlns:sodipodi="http://sodipodi.sourceforge.net/DTD/sodipodi-0.dtd"
   xmlns:inkscape="http://www.inkscape.org/namespaces/inkscape"
   width="24"
   height="24"
   viewBox="0 0 24 24"
   version="1.1"
   id="svg8"
   inkscape:version="0.92.4 5da689c313, 2019-01-14"
   sodipodi:docname="ic_rate_empty.svg">
  <defs
     id="defs2" />
  <sodipodi:namedview
     id="base"
     pagecolor="#ffffff"
     bordercolor="#000000"
     borderopacity="1"
     inkscape:pageopacity="0.0"
     inkscape:pageshadow="2"
     inkscape:zoom="26.5625"
     inkscape:cx="3.0622354"
     inkscape:cy="5.3036271"
     inkscape:document-units="px"
     inkscape:current-layer="layer1"
     showgrid="true"
     units="px"
     inkscape:pagecheckerboard="false"
     showborder="true"
     borderlayer="true"
     inkscape:showpageshadow="false"
     inkscape:window-width="1920"
     inkscape:window-height="1047"
     inkscape:window-x="0"
     inkscape:window-y="33"
     inkscape:window-maximized="1">
    <inkscape:grid
       type="xygrid"
       id="grid815"
       color="#007ba8"
       opacity="0.18431373"
       empcolor="#007ba8"
       empopacity="0.50196078"
       visible="true"
       snapvisiblegridlinesonly="true"
       dotted="false" />
  </sodipodi:namedview>
  <metadata
     id="metadata5">
    <rdf:RDF>
      <cc:Work
         rdf:about="">
        <dc:format>image/svg+xml</dc:format>
        <dc:type
           rdf:resource="http://purl.org/dc/dcmitype/StillImage" />
        <dc:title />
      </cc:Work>
    </rdf:RDF>
  </metadata>
  <g
     inkscape:label="Layer 1"
     inkscape:groupmode="layer"
     id="layer1"
     transform="translate(0,-284.76665)">
    <path
       style="color:#000000;font-style:normal;font-variant:normal;font-weight:normal;font-stretch:normal;font-size:medium;line-height:normal;font-family:sans-serif;font-variant-ligatures:normal;font-variant-position:normal;font-variant-caps:normal;font-variant-numeric:normal;font-variant-alternates:normal;font-feature-settings:normal;text-indent:0;text-align:start;text-decoration:none;text-decoration-line:none;text-decoration-style:solid;text-decoration-color:#000000;letter-spacing:normal;word-spacing:normal;text-transform:none;writing-mode:lr-tb;direction:ltr;text-orientation:mixed;dominant-baseline:auto;baseline-shift:baseline;text-anchor:start;white-space:normal;shape-padding:0;clip-rule:nonzero;display:inline;overflow:visible;visibility:visible;opacity:1;isolation:auto;mix-blend-mode:normal;color-interpolation:sRGB;color-interpolation-filters:linearRGB;solid-color:#000000;solid-opacity:1;vector-effect:none;fill:#000000;fill-opacity:1;fill-rule:nonzero;stroke:none;stroke-width:1.72970629;stroke-linecap:round;stroke-linejoin:round;stroke-miterlimit:4;stroke-dasharray:none;stroke-dashoffset:0;stroke-opacity:1;paint-order:normal;color-rendering:auto;image-rendering:auto;shape-rendering:auto;text-rendering:auto;enable-background:accumulate"
       d="m 12,287.22266 c -0.758554,0 -1.386996,0.46002 -1.767578,0.96289 -0.3805824,0.50287 -0.6206892,1.07769 -0.8476564,1.64648 -0.4539343,1.13759 -0.9361002,2.23608 -1.2617187,2.47266 -0.3256185,0.23657 -1.5200029,0.35536 -2.7421875,0.43554 -0.6110923,0.0401 -1.2303069,0.0923 -1.8261719,0.29883 -0.595865,0.20656 -1.2284845,0.66139 -1.4628906,1.38282 -0.2344061,0.72142 0.010442,1.46116 0.3710937,1.97851 0.3606522,0.51735 0.8299624,0.92283 1.3007813,1.31445 0.9416378,0.78326 1.8385154,1.58206 1.9628906,1.96485 0.1243752,0.38279 -0.1321763,1.55504 -0.4335937,2.74219 -0.1507088,0.59357 -0.2916144,1.19759 -0.2792969,1.82812 0.012317,0.63053 0.2495981,1.37249 0.8632812,1.81836 0.6136832,0.44587 1.3926161,0.4429 1.9960938,0.25976 0.6034776,-0.18313 1.1343945,-0.50527 1.6523437,-0.83203 1.0358984,-0.65351 2.0721224,-1.25976 2.4746094,-1.25976 0.402487,0 1.438711,0.60625 2.474609,1.25976 0.51795,0.32676 1.048867,0.6489 1.652344,0.83203 0.603478,0.18314 1.382411,0.18611 1.996094,-0.25976 0.613683,-0.44587 0.850964,-1.18783 0.863281,-1.81836 0.01232,-0.63053 -0.128588,-1.23455 -0.279297,-1.82812 -0.301417,-1.18715 -0.557969,-2.3594 -0.433593,-2.74219 0.124375,-0.38279 1.021252,-1.18159 1.96289,-1.96485 0.470819,-0.39162 0.940129,-0.7971 1.300781,-1.31445 0.360653,-0.51735 0.6055,-1.25709 0.371094,-1.97851 -0.234406,-0.72143 -0.867025,-1.17626 -1.462891,-1.38282 -0.595865,-0.20656 -1.215079,-0.25873 -1.826171,-0.29883 -1.222185,-0.0802 -2.416569,-0.19897 -2.742188,-0.43554 -0.325618,-0.23658 -0.807784,-1.33507 -1.261719,-2.47266 -0.226967,-0.56879 -0.467074,-1.14361 -0.847656,-1.64648 C 13.386996,287.68268 12.758554,287.22266 12,287.22266 Z m 0,1.73046 c 0.135345,0 0.194014,0.0227 0.386719,0.27735 0.192705,0.25462 0.412051,0.71342 0.623047,1.24219 0.421992,1.05754 0.730821,2.4162 1.851562,3.23046 1.120741,0.81427 2.508348,0.68718 3.644531,0.76172 0.568092,0.0373 1.071336,0.1044 1.373047,0.20899 0.301712,0.10459 0.340989,0.15253 0.382813,0.28125 0.04182,0.12872 0.04003,0.19312 -0.142578,0.45508 -0.182614,0.26195 -0.552546,0.61054 -0.990235,0.97461 -0.875377,0.72813 -2.071915,1.44225 -2.5,2.75976 -0.428085,1.31751 0.120183,2.59756 0.400391,3.70117 0.140104,0.55181 0.234752,1.05183 0.228515,1.3711 -0.0062,0.31926 -0.04089,0.37357 -0.15039,0.45312 -0.109497,0.0796 -0.170996,0.0947 -0.476563,0.002 -0.305566,-0.0927 -0.752872,-0.33491 -1.234375,-0.63868 -0.963005,-0.60752 -2.011172,-1.52539 -3.396484,-1.52539 -1.385312,0 -2.4334791,0.91787 -3.3964844,1.52539 -0.4815026,0.30377 -0.9288087,0.54595 -1.234375,0.63868 -0.3055662,0.0927 -0.3670659,0.0776 -0.4765625,-0.002 -0.1094965,-0.0795 -0.1441538,-0.13386 -0.1503906,-0.45312 -0.00624,-0.31927 0.088412,-0.81929 0.2285156,-1.3711 0.2802076,-1.10361 0.8284755,-2.38366 0.4003907,-3.70117 -0.4280849,-1.31751 -1.6246226,-2.03163 -2.5,-2.75976 -0.4376888,-0.36407 -0.8076209,-0.71266 -0.9902344,-0.97461 -0.1826135,-0.26196 -0.1844021,-0.32636 -0.1425782,-0.45508 0.041824,-0.12872 0.081101,-0.17666 0.3828126,-0.28125 0.3017116,-0.10459 0.8049554,-0.17172 1.3730468,-0.20899 1.136183,-0.0745 2.5237904,0.0525 3.6445313,-0.76172 1.1207411,-0.81426 1.4295701,-2.17292 1.8515621,-3.23046 0.210997,-0.52877 0.430342,-0.98757 0.623047,-1.24219 0.192705,-0.25463 0.251374,-0.27734 0.386719,-0.27735 z"
       id="path816"
       inkscape:connector-curvature="0" />
  </g>
</svg>
