<?xml version="1.0" encoding="UTF-8" standalone="no"?>
<!-- Created with Inkscape (http://www.inkscape.org/) -->

<svg
   xmlns:dc="http://purl.org/dc/elements/1.1/"
   xmlns:cc="http://creativecommons.org/ns#"
   xmlns:rdf="http://www.w3.org/1999/02/22-rdf-syntax-ns#"
   xmlns:svg="http://www.w3.org/2000/svg"
   xmlns="http://www.w3.org/2000/svg"
   xmlns:sodipodi="http://sodipodi.sourceforge.net/DTD/sodipodi-0.dtd"
   xmlns:inkscape="http://www.inkscape.org/namespaces/inkscape"
   width="24"
   height="24"
   viewBox="0 0 24 24"
   version="1.1"
   id="svg8"
   inkscape:version="0.92.4 5da689c313, 2019-01-14"
   sodipodi:docname="ic_rate_half.svg">
  <defs
     id="defs2" />
  <sodipodi:namedview
     id="base"
     pagecolor="#ffffff"
     bordercolor="#000000"
     borderopacity="1"
     inkscape:pageopacity="0.0"
     inkscape:pageshadow="2"
     inkscape:zoom="18.782524"
     inkscape:cx="10.544515"
     inkscape:cy="5.0916145"
     inkscape:document-units="px"
     inkscape:current-layer="layer1"
     showgrid="true"
     units="px"
     inkscape:pagecheckerboard="false"
     showborder="true"
     borderlayer="true"
     inkscape:showpageshadow="false"
     inkscape:window-width="1920"
     inkscape:window-height="1047"
     inkscape:window-x="0"
     inkscape:window-y="33"
     inkscape:window-maximized="1">
    <inkscape:grid
       type="xygrid"
       id="grid815"
       color="#007ba8"
       opacity="0.18431373"
       empcolor="#007ba8"
       empopacity="0.50196078"
       visible="true"
       snapvisiblegridlinesonly="true"
       dotted="false" />
  </sodipodi:namedview>
  <metadata
     id="metadata5">
    <rdf:RDF>
      <cc:Work
         rdf:about="">
        <dc:format>image/svg+xml</dc:format>
        <dc:type
           rdf:resource="http://purl.org/dc/dcmitype/StillImage" />
        <dc:title></dc:title>
      </cc:Work>
    </rdf:RDF>
  </metadata>
  <g
     inkscape:label="Layer 1"
     inkscape:groupmode="layer"
     id="layer1"
     transform="translate(0,-284.76665)">
    <path
       style="fill:#000000;fill-opacity:1;stroke:none;stroke-width:1.72970629;stroke-linecap:round;stroke-linejoin:round;stroke-miterlimit:4;stroke-dasharray:none;stroke-opacity:1;paint-order:normal"
       d="M 12 2.4550781 C 11.620723 2.4550781 11.274112 2.570183 10.974609 2.7480469 C 10.824417 2.8372407 10.687074 2.942408 10.5625 3.0566406 C 10.438658 3.1702023 10.327287 3.2926215 10.232422 3.4179688 C 9.8518393 3.9208386 9.6117328 4.4956631 9.3847656 5.0644531 C 8.9308313 6.2020431 8.4486654 7.3005294 8.1230469 7.5371094 C 7.9602376 7.6553944 7.5799621 7.7451602 7.0878906 7.8144531 C 6.5958191 7.8837461 5.9919517 7.9325663 5.3808594 7.9726562 C 4.7697671 8.0127562 4.1505525 8.0649544 3.5546875 8.2714844 C 3.2563437 8.374907 2.9496753 8.541285 2.6875 8.7714844 C 2.5569545 8.8861081 2.4372389 9.0151979 2.3359375 9.1621094 C 2.3356568 9.1625159 2.336218 9.1636558 2.3359375 9.1640625 C 2.2347941 9.3110155 2.1502118 9.4745138 2.0917969 9.6542969 C 1.8573908 10.375717 2.1022389 11.115465 2.4628906 11.632812 C 2.8235428 12.150163 3.292853 12.555646 3.7636719 12.947266 C 4.7053097 13.730526 5.6021873 14.529319 5.7265625 14.912109 C 5.8509377 15.294899 5.5943862 16.467147 5.2929688 17.654297 C 5.1422599 18.247867 5.0013544 18.851892 5.0136719 19.482422 C 5.0259889 20.112952 5.26327 20.854911 5.8769531 21.300781 C 6.3372154 21.635184 6.8901445 21.717354 7.3925781 21.660156 C 7.5600559 21.641091 7.7221774 21.606332 7.8730469 21.560547 C 8.4765245 21.377417 9.0074414 21.055276 9.5253906 20.728516 C 10.302314 20.238383 11.080049 19.77536 11.589844 19.574219 C 11.759775 19.507171 11.899378 19.46875 12 19.46875 C 12.402487 19.46875 13.438711 20.075006 14.474609 20.728516 C 14.992559 21.055276 15.523476 21.377417 16.126953 21.560547 C 16.730431 21.743687 17.509364 21.746651 18.123047 21.300781 C 18.73673 20.854911 18.974011 20.112952 18.986328 19.482422 C 18.998648 18.851892 18.85774 18.247867 18.707031 17.654297 C 18.405614 16.467147 18.149062 15.294899 18.273438 14.912109 C 18.397813 14.529319 19.29469 13.730526 20.236328 12.947266 C 20.707147 12.555646 21.176457 12.150163 21.537109 11.632812 C 21.897762 11.115462 22.142609 10.375717 21.908203 9.6542969 C 21.673797 8.9328669 21.041179 8.4780444 20.445312 8.2714844 C 19.849448 8.0649244 19.230233 8.0127562 18.619141 7.9726562 C 17.396956 7.8924563 16.202572 7.7736794 15.876953 7.5371094 C 15.551335 7.3005294 15.069169 6.2020431 14.615234 5.0644531 C 14.388267 4.4956631 14.14816 3.9208387 13.767578 3.4179688 C 13.386996 2.9150987 12.758554 2.4550781 12 2.4550781 z M 12 4.1855469 C 12.135345 4.1855469 12.194014 4.2082406 12.386719 4.4628906 C 12.579424 4.7175106 12.79877 5.1763081 13.009766 5.7050781 C 13.431758 6.7626181 13.740587 8.1212869 14.861328 8.9355469 C 15.982069 9.7498169 17.369676 9.6227256 18.505859 9.6972656 C 19.073951 9.7345656 19.577195 9.80166 19.878906 9.90625 C 20.180618 10.01084 20.219895 10.05878 20.261719 10.1875 C 20.303539 10.31622 20.301749 10.380618 20.119141 10.642578 C 19.936527 10.904528 19.566595 11.253118 19.128906 11.617188 C 18.253529 12.345318 17.056991 13.059443 16.628906 14.376953 C 16.200821 15.694463 16.749089 16.974515 17.029297 18.078125 C 17.169401 18.629935 17.264049 19.129949 17.257812 19.449219 C 17.251613 19.768479 17.216922 19.822794 17.107422 19.902344 C 16.997925 19.981944 16.936426 19.996997 16.630859 19.904297 C 16.325293 19.811597 15.877987 19.569395 15.396484 19.265625 C 14.433479 18.658105 13.385312 17.740234 12 17.740234 L 12 4.1855469 z "
       transform="translate(0,284.76665)"
       id="path816" />
  </g>
</svg>
