<?xml version="1.0" encoding="UTF-8" standalone="no"?>
<!-- Created with Inkscape (http://www.inkscape.org/) -->

<svg
   xmlns:osb="http://www.openswatchbook.org/uri/2009/osb"
   xmlns:dc="http://purl.org/dc/elements/1.1/"
   xmlns:cc="http://creativecommons.org/ns#"
   xmlns:rdf="http://www.w3.org/1999/02/22-rdf-syntax-ns#"
   xmlns:svg="http://www.w3.org/2000/svg"
   xmlns="http://www.w3.org/2000/svg"
   xmlns:sodipodi="http://sodipodi.sourceforge.net/DTD/sodipodi-0.dtd"
   xmlns:inkscape="http://www.inkscape.org/namespaces/inkscape"
   width="24"
   height="24"
   viewBox="0 0 24 24"
   version="1.1"
   id="svg8"
   inkscape:version="0.92.4 5da689c313, 2019-01-14"
   sodipodi:docname="launcher.svg.2019_07_01_17_37_47.0.svg"
   inkscape:export-filename="/home/hnau/files/common/icons/yokodzun_circle.png"
   inkscape:export-xdpi="3840"
   inkscape:export-ydpi="3840">
  <defs
     id="defs2">
    <linearGradient
       id="linearGradient1731"
       osb:paint="solid">
      <stop
         style="stop-color:#a8216f;stop-opacity:1;"
         offset="0"
         id="stop1729" />
    </linearGradient>
  </defs>
  <sodipodi:namedview
     id="base"
     pagecolor="#ffffff"
     bordercolor="#000000"
     borderopacity="1"
     inkscape:pageopacity="0.0"
     inkscape:pageshadow="2"
     inkscape:zoom="11.313709"
     inkscape:cx="16.723907"
     inkscape:cy="8.5406973"
     inkscape:document-units="px"
     inkscape:current-layer="layer1"
     showgrid="false"
     units="px"
     inkscape:pagecheckerboard="false"
     showborder="true"
     borderlayer="true"
     inkscape:showpageshadow="false"
     inkscape:window-width="1920"
     inkscape:window-height="1047"
     inkscape:window-x="0"
     inkscape:window-y="33"
     inkscape:window-maximized="1">
    <inkscape:grid
       type="xygrid"
       id="grid815"
       color="#007ba8"
       opacity="0.18431373"
       empcolor="#007ba8"
       empopacity="0.50196078"
       visible="true"
       snapvisiblegridlinesonly="true"
       dotted="false" />
  </sodipodi:namedview>
  <metadata
     id="metadata5">
    <rdf:RDF>
      <cc:Work
         rdf:about="">
        <dc:format>image/svg+xml</dc:format>
        <dc:type
           rdf:resource="http://purl.org/dc/dcmitype/StillImage" />
        <dc:title />
      </cc:Work>
    </rdf:RDF>
  </metadata>
  <g
     inkscape:label="Layer 1"
     inkscape:groupmode="layer"
     id="layer1"
     transform="translate(0,-284.76665)">
    <circle
       style="fill:#101020;fill-opacity:1;stroke:none;stroke-width:2;stroke-linecap:round;stroke-linejoin:round;stroke-miterlimit:4;stroke-dasharray:none;stroke-opacity:0.70270272;paint-order:normal"
       id="path888"
       cx="12"
       cy="296.76666"
       r="12" />
    <circle
       style="fill:#8b2bcf;fill-opacity:0.54440152;stroke:none;stroke-width:2;stroke-linecap:round;stroke-linejoin:round;stroke-miterlimit:4;stroke-dasharray:none;stroke-opacity:0.70270272;paint-order:normal"
       id="path940"
       cx="-148.60109"
       cy="258.23526"
       r="1" />
    <path
       style="fill:#2196f3;fill-opacity:1;stroke:none;stroke-width:2;stroke-linecap:round;stroke-linejoin:round;stroke-miterlimit:4;stroke-dasharray:none;stroke-opacity:0.70270272;paint-order:normal"
       d="m 11,288.82915 a 9,9 0 0 0 -2,0.47266 v 2.16015 a 7,7 0 0 1 2,-0.61328 z m 2,0.006 v 2.01172 a 7,7 0 0 1 2,0.59961 v -2.15039 a 9,9 0 0 0 -2,-0.46094 z m -1,2.93164 a 6,6 0 0 0 -6,6 6,6 0 0 0 0.5546875,2.5 6,6 0 0 0 0.6054687,1.03516 6,6 0 0 0 0.359375,0.44726 6,6 0 0 0 0.060547,0.0645 6,6 0 0 0 0.3535157,0.35742 6,6 0 0 0 0.1015621,0.0937 4,4 0 0 1 0,-0.004 6,6 0 0 0 3.964844,1.50586 6,6 0 0 0 3.962891,-1.50195 4,4 0 0 0 -0.84375,-2 A 4,4 0 0 1 12,301.76665 4,4 0 0 1 8.882812,300.27251 4,4 0 0 1 12,298.76665 a 6,6 0 0 0 3.962891,-1.50977 4,4 0 0 1 0,0.004 6,6 0 0 0 0.09961,-0.0977 6,6 0 0 0 0.289062,-0.27929 6,6 0 0 0 0.164063,-0.18946 6,6 0 0 0 0.228516,-0.27148 6,6 0 0 0 0.142578,-0.20117 6,6 0 0 0 0.193359,-0.28125 6,6 0 0 0 0.16211,-0.28711 6,6 0 0 0 0.134765,-0.24805 6,6 0 0 0 0.07031,-0.13867 6,6 0 0 0 -0.277344,-0.53125 6,6 0 0 0 -0.002,-0.002 6,6 0 0 0 -0.326172,-0.5 6,6 0 0 0 -0.002,-0.002 6,6 0 0 0 -0.07227,-0.0898 6,6 0 0 0 -0.302734,-0.37695 6,6 0 0 0 -0.421875,-0.42383 6,6 0 0 0 -0.07813,-0.0723 4,4 0 0 1 -0.002,0.006 A 6,6 0 0 0 12,291.76665 Z m 0,2 A 4,4 0 0 1 15.113281,295.2647 4,4 0 0 1 12,296.76665 6,6 0 0 0 8.037109,298.27642 4,4 0 0 1 8,297.76665 a 4,4 0 0 1 4,-4 z"
       id="path1057"
       inkscape:connector-curvature="0" />
  </g>
</svg>
