<?xml version="1.0" encoding="UTF-8" standalone="no"?>
<!-- Created with Inkscape (http://www.inkscape.org/) -->

<svg
   xmlns:osb="http://www.openswatchbook.org/uri/2009/osb"
   xmlns:dc="http://purl.org/dc/elements/1.1/"
   xmlns:cc="http://creativecommons.org/ns#"
   xmlns:rdf="http://www.w3.org/1999/02/22-rdf-syntax-ns#"
   xmlns:svg="http://www.w3.org/2000/svg"
   xmlns="http://www.w3.org/2000/svg"
   xmlns:sodipodi="http://sodipodi.sourceforge.net/DTD/sodipodi-0.dtd"
   xmlns:inkscape="http://www.inkscape.org/namespaces/inkscape"
   width="24"
   height="24"
   viewBox="0 0 24 24"
   version="1.1"
   id="svg8"
   inkscape:version="0.92.4 5da689c313, 2019-01-14"
   sodipodi:docname="launcher.svg"
   inkscape:export-filename="/home/hnau/files/common/icons/yokodzun_circle.png"
   inkscape:export-xdpi="3840"
   inkscape:export-ydpi="3840">
  <defs
     id="defs2">
    <linearGradient
       id="linearGradient1731"
       osb:paint="solid">
      <stop
         style="stop-color:#a8216f;stop-opacity:1;"
         offset="0"
         id="stop1729" />
    </linearGradient>
  </defs>
  <sodipodi:namedview
     id="base"
     pagecolor="#ffffff"
     bordercolor="#000000"
     borderopacity="1"
     inkscape:pageopacity="0.0"
     inkscape:pageshadow="2"
     inkscape:zoom="16"
     inkscape:cx="12.87973"
     inkscape:cy="10.027193"
     inkscape:document-units="px"
     inkscape:current-layer="layer1"
     showgrid="true"
     units="px"
     inkscape:pagecheckerboard="false"
     showborder="true"
     borderlayer="true"
     inkscape:showpageshadow="false"
     inkscape:window-width="1920"
     inkscape:window-height="1047"
     inkscape:window-x="0"
     inkscape:window-y="33"
     inkscape:window-maximized="1">
    <inkscape:grid
       type="xygrid"
       id="grid815"
       color="#007ba8"
       opacity="0.18431373"
       empcolor="#007ba8"
       empopacity="0.50196078"
       visible="true"
       snapvisiblegridlinesonly="true"
       dotted="false" />
  </sodipodi:namedview>
  <metadata
     id="metadata5">
    <rdf:RDF>
      <cc:Work
         rdf:about="">
        <dc:format>image/svg+xml</dc:format>
        <dc:type
           rdf:resource="http://purl.org/dc/dcmitype/StillImage" />
        <dc:title></dc:title>
      </cc:Work>
    </rdf:RDF>
  </metadata>
  <g
     inkscape:label="Layer 1"
     inkscape:groupmode="layer"
     id="layer1"
     transform="translate(0,-284.76665)">
    <circle
       style="fill:#101010;fill-opacity:1;stroke:none;stroke-width:2;stroke-linecap:round;stroke-linejoin:round;stroke-miterlimit:4;stroke-dasharray:none;stroke-opacity:0.70270272;paint-order:normal"
       id="path888"
       cx="12"
       cy="296.76666"
       r="12" />
    <path
       style="fill:#29b6f6;fill-opacity:1;stroke:none;stroke-width:2;stroke-linejoin:round;stroke-miterlimit:4;stroke-dasharray:none;stroke-opacity:0.52529141"
       d="m 13.625,288.91899 -0.697266,1.91602 a 7,7 0 0 1 2.81836,1.02734 l 0.695312,-1.91015 A 9,9 0 0 0 13.625,288.91899 Z m -3.248047,0.002 a 9,9 0 0 0 -2.820312,1.02539 l 0.695312,1.91015 A 7,7 0 0 1 11.074219,290.837 Z M 12,291.76665 a 6,6 0 0 0 -6,6 6,6 0 0 0 6,6 6,6 0 0 0 4.240234,-1.75977 l -1.414062,-1.41406 A 4,4 0 0 1 12,301.76665 a 4,4 0 0 1 -3.869141,-3 H 17 17.910156 a 6,6 0 0 0 0.08984,-1 6,6 0 0 0 -6,-6 z m -0.06641,2 a 4,4 0 0 1 0.06641,0 4,4 0 0 1 3.869141,3 H 8.132812 a 4,4 0 0 1 3.800782,-3 z"
       id="path1073"
       inkscape:connector-curvature="0" />
  </g>
</svg>
