<?xml version="1.0" encoding="UTF-8" standalone="no"?>
<!-- Created with Inkscape (http://www.inkscape.org/) -->

<svg
   xmlns:osb="http://www.openswatchbook.org/uri/2009/osb"
   xmlns:dc="http://purl.org/dc/elements/1.1/"
   xmlns:cc="http://creativecommons.org/ns#"
   xmlns:rdf="http://www.w3.org/1999/02/22-rdf-syntax-ns#"
   xmlns:svg="http://www.w3.org/2000/svg"
   xmlns="http://www.w3.org/2000/svg"
   xmlns:sodipodi="http://sodipodi.sourceforge.net/DTD/sodipodi-0.dtd"
   xmlns:inkscape="http://www.inkscape.org/namespaces/inkscape"
   width="108"
   height="108"
   viewBox="0 0 108 108"
   version="1.1"
   id="svg8"
   inkscape:version="0.92.4 5da689c313, 2019-01-14"
   sodipodi:docname="launcher_adaptive_foreground.svg"
   inkscape:export-filename="/home/hnau/files/common/icons/yokodzun_circle.png"
   inkscape:export-xdpi="3840"
   inkscape:export-ydpi="3840">
  <defs
     id="defs2">
    <linearGradient
       id="linearGradient1731"
       osb:paint="solid">
      <stop
         style="stop-color:#a8216f;stop-opacity:1;"
         offset="0"
         id="stop1729" />
    </linearGradient>
  </defs>
  <sodipodi:namedview
     id="base"
     pagecolor="#ffffff"
     bordercolor="#000000"
     borderopacity="1"
     inkscape:pageopacity="0.0"
     inkscape:pageshadow="2"
     inkscape:zoom="5.0296163"
     inkscape:cx="30.147934"
     inkscape:cy="53.305147"
     inkscape:document-units="px"
     inkscape:current-layer="layer1"
     showgrid="true"
     units="px"
     inkscape:pagecheckerboard="false"
     showborder="true"
     borderlayer="true"
     inkscape:showpageshadow="false"
     inkscape:window-width="1920"
     inkscape:window-height="1047"
     inkscape:window-x="0"
     inkscape:window-y="33"
     inkscape:window-maximized="1">
    <inkscape:grid
       type="xygrid"
       id="grid815"
       color="#007ba8"
       opacity="0.18431373"
       empcolor="#007ba8"
       empopacity="0.50196078"
       visible="true"
       snapvisiblegridlinesonly="true"
       dotted="false" />
  </sodipodi:namedview>
  <metadata
     id="metadata5">
    <rdf:RDF>
      <cc:Work
         rdf:about="">
        <dc:format>image/svg+xml</dc:format>
        <dc:type
           rdf:resource="http://purl.org/dc/dcmitype/StillImage" />
        <dc:title />
      </cc:Work>
    </rdf:RDF>
  </metadata>
  <g
     inkscape:label="Layer 1"
     inkscape:groupmode="layer"
     id="layer1"
     transform="translate(0,-200.76665)">
    <path
       inkscape:connector-curvature="0"
       style="fill:#2196f3;fill-opacity:1;stroke:none;stroke-width:6;stroke-linecap:round;stroke-linejoin:round;stroke-miterlimit:4;stroke-dasharray:none;stroke-opacity:1;paint-order:normal"
       d="m 51.052734,230.76665 c -1.785414,0.2031 -3.546096,0.58386 -5.255859,1.13673 -1.018599,2.35863 -1.695345,4.85052 -2.009766,7.40037 2.247786,-1.27173 4.710867,-2.15892 7.265625,-2.5371 z m 6,0 v 0.006 5.99415 c 2.556777,0.37749 5.021907,1.28226 7.271484,2.55468 -0.308028,-2.54484 -0.976851,-5.03271 -1.986327,-7.38882 -1.718421,-0.56277 -3.48903,-0.95721 -5.285157,-1.16601 z m -3,9 c -9.941127,0 -18,8.05887 -18,18 0,9.94113 8.058873,18 18,18 4.379052,-0.006 8.605809,-1.60776 11.888673,-4.50585 -0.27456,-2.19507 -1.150581,-4.27155 -2.53125,-6 -2.273982,2.84385 -5.716209,4.50138 -9.357423,4.50585 -3.636201,-0.002 -7.075383,-1.65261 -9.351564,-4.48827 2.271531,-2.84445 5.711415,-4.50405 9.351564,-4.51173 7.093806,0 13.164435,-3.90642 16.341798,-10.5 -2.929317,-6.39102 -9.311433,-10.49169 -16.341798,-10.5 z m 0,6 c 3.636117,0.006 7.07313,1.66155 9.345702,4.5 -2.272572,2.83845 -5.709585,4.4934 -9.345702,4.5 -4.381341,0.012 -8.608371,1.61898 -11.888673,4.52343 -0.06942,-0.50493 -0.10662,-1.01376 -0.11133,-1.52343 0,-6.62742 5.372583,-12 12.000003,-12 z"
       id="path952" />
  </g>
</svg>
