<?xml version="1.0" encoding="UTF-8" standalone="no"?>
<!-- Created with Inkscape (http://www.inkscape.org/) -->

<svg
   xmlns:osb="http://www.openswatchbook.org/uri/2009/osb"
   xmlns:dc="http://purl.org/dc/elements/1.1/"
   xmlns:cc="http://creativecommons.org/ns#"
   xmlns:rdf="http://www.w3.org/1999/02/22-rdf-syntax-ns#"
   xmlns:svg="http://www.w3.org/2000/svg"
   xmlns="http://www.w3.org/2000/svg"
   xmlns:sodipodi="http://sodipodi.sourceforge.net/DTD/sodipodi-0.dtd"
   xmlns:inkscape="http://www.inkscape.org/namespaces/inkscape"
   width="24"
   height="24"
   viewBox="0 0 24 24"
   version="1.1"
   id="svg8"
   inkscape:version="0.92.4 5da689c313, 2019-01-14"
   sodipodi:docname="launcher.svg"
   inkscape:export-filename="/home/hnau/files/common/icons/yokodzun_circle.png"
   inkscape:export-xdpi="3840"
   inkscape:export-ydpi="3840">
  <defs
     id="defs2">
    <linearGradient
       id="linearGradient1731"
       osb:paint="solid">
      <stop
         style="stop-color:#a8216f;stop-opacity:1;"
         offset="0"
         id="stop1729" />
    </linearGradient>
  </defs>
  <sodipodi:namedview
     id="base"
     pagecolor="#ffffff"
     bordercolor="#000000"
     borderopacity="1"
     inkscape:pageopacity="0.0"
     inkscape:pageshadow="2"
     inkscape:zoom="5.6568543"
     inkscape:cx="25.252234"
     inkscape:cy="0.24994425"
     inkscape:document-units="px"
     inkscape:current-layer="layer1"
     showgrid="true"
     units="px"
     inkscape:pagecheckerboard="false"
     showborder="true"
     borderlayer="true"
     inkscape:showpageshadow="false"
     inkscape:window-width="1920"
     inkscape:window-height="1047"
     inkscape:window-x="0"
     inkscape:window-y="33"
     inkscape:window-maximized="1">
    <inkscape:grid
       type="xygrid"
       id="grid815"
       color="#007ba8"
       opacity="0.18431373"
       empcolor="#007ba8"
       empopacity="0.50196078"
       visible="true"
       snapvisiblegridlinesonly="true"
       dotted="false" />
  </sodipodi:namedview>
  <metadata
     id="metadata5">
    <rdf:RDF>
      <cc:Work
         rdf:about="">
        <dc:format>image/svg+xml</dc:format>
        <dc:type
           rdf:resource="http://purl.org/dc/dcmitype/StillImage" />
        <dc:title></dc:title>
      </cc:Work>
    </rdf:RDF>
  </metadata>
  <g
     inkscape:label="Layer 1"
     inkscape:groupmode="layer"
     id="layer1"
     transform="translate(0,-284.76665)">
    <circle
       style="fill:#101020;fill-opacity:1;stroke:none;stroke-width:2;stroke-linecap:round;stroke-linejoin:round;stroke-miterlimit:4;stroke-dasharray:none;stroke-opacity:0.70270272;paint-order:normal"
       id="path888"
       cx="12"
       cy="296.76666"
       r="12" />
    <path
       style="fill:#2196f3;fill-opacity:1;stroke:none;stroke-width:2;stroke-linecap:round;stroke-linejoin:round;stroke-miterlimit:4;stroke-dasharray:none;stroke-opacity:1;paint-order:normal"
       d="M 11 4 C 10.404862 4.0677 9.8179675 4.1946162 9.2480469 4.3789062 C 8.9085135 5.1651162 8.6829316 5.9957531 8.578125 6.8457031 C 9.3273869 6.4217931 10.148414 6.12606 11 6 L 11 4 z M 13 4 L 13 4.0019531 L 13 6 C 13.852259 6.12583 14.673969 6.4274225 15.423828 6.8515625 C 15.321152 6.0033325 15.098211 5.1740419 14.761719 4.3886719 C 14.188912 4.2010819 13.598709 4.0696 13 4 z M 12 7 C 8.6862915 7 6 9.68629 6 13 C 6 16.31371 8.6862915 19 12 19 C 13.459684 18.998 14.868603 18.464077 15.962891 17.498047 C 15.871371 16.766357 15.579364 16.074197 15.119141 15.498047 C 14.361147 16.445997 13.213738 16.99851 12 17 C 10.787933 16.99934 9.6415389 16.449126 8.8828125 15.503906 C 9.6399895 14.555756 10.786617 14.00256 12 14 C 14.364602 14 16.388145 12.69786 17.447266 10.5 C 16.470827 8.36966 14.343455 7.00277 12 7 z M 12 9 C 13.212039 9.002 14.35771 9.55385 15.115234 10.5 C 14.35771 11.44615 13.212039 11.9978 12 12 C 10.539553 12.004 9.1305426 12.539664 8.0371094 13.507812 C 8.0139681 13.339504 8.0015729 13.16989 8 13 C 8 10.79086 9.790861 9 12 9 z "
       id="path952"
       transform="translate(0,284.76665)" />
  </g>
</svg>
