<?xml version="1.0" encoding="UTF-8" standalone="no"?>
<!-- Created with Inkscape (http://www.inkscape.org/) -->

<svg
   xmlns:osb="http://www.openswatchbook.org/uri/2009/osb"
   xmlns:dc="http://purl.org/dc/elements/1.1/"
   xmlns:cc="http://creativecommons.org/ns#"
   xmlns:rdf="http://www.w3.org/1999/02/22-rdf-syntax-ns#"
   xmlns:svg="http://www.w3.org/2000/svg"
   xmlns="http://www.w3.org/2000/svg"
   xmlns:sodipodi="http://sodipodi.sourceforge.net/DTD/sodipodi-0.dtd"
   xmlns:inkscape="http://www.inkscape.org/namespaces/inkscape"
   width="24"
   height="24"
   viewBox="0 0 24 24"
   version="1.1"
   id="svg8"
   inkscape:version="0.92.4 5da689c313, 2019-01-14"
   sodipodi:docname="notification.svg"
   inkscape:export-filename="/home/hnau/files/common/icons/yokodzun_circle.png"
   inkscape:export-xdpi="3840"
   inkscape:export-ydpi="3840">
  <defs
     id="defs2">
    <linearGradient
       id="linearGradient1731"
       osb:paint="solid">
      <stop
         style="stop-color:#a8216f;stop-opacity:1;"
         offset="0"
         id="stop1729" />
    </linearGradient>
  </defs>
  <sodipodi:namedview
     id="base"
     pagecolor="#ffffff"
     bordercolor="#000000"
     borderopacity="1"
     inkscape:pageopacity="0.0"
     inkscape:pageshadow="2"
     inkscape:zoom="40.23693"
     inkscape:cx="9.8254533"
     inkscape:cy="19.654847"
     inkscape:document-units="px"
     inkscape:current-layer="layer1"
     showgrid="true"
     units="px"
     inkscape:pagecheckerboard="false"
     showborder="true"
     borderlayer="true"
     inkscape:showpageshadow="false"
     inkscape:window-width="1920"
     inkscape:window-height="1047"
     inkscape:window-x="0"
     inkscape:window-y="33"
     inkscape:window-maximized="1">
    <inkscape:grid
       type="xygrid"
       id="grid815"
       color="#007ba8"
       opacity="0.18431373"
       empcolor="#007ba8"
       empopacity="0.50196078"
       visible="true"
       snapvisiblegridlinesonly="true"
       dotted="false" />
  </sodipodi:namedview>
  <metadata
     id="metadata5">
    <rdf:RDF>
      <cc:Work
         rdf:about="">
        <dc:format>image/svg+xml</dc:format>
        <dc:type
           rdf:resource="http://purl.org/dc/dcmitype/StillImage" />
        <dc:title />
      </cc:Work>
    </rdf:RDF>
  </metadata>
  <g
     inkscape:label="Layer 1"
     inkscape:groupmode="layer"
     id="layer1"
     transform="translate(0,-284.76665)">
    <path
       inkscape:connector-curvature="0"
       style="fill:#2196f3;fill-opacity:1;stroke:none;stroke-width:3;stroke-linecap:round;stroke-linejoin:round;stroke-miterlimit:4;stroke-dasharray:none;stroke-opacity:1;paint-order:normal"
       d="m 10.500001,285.26665 c -0.892708,0.10155 -1.7730497,0.29193 -2.6279306,0.56837 -0.5093001,1.17931 -0.847673,2.42526 -1.0048829,3.70018 1.1238929,-0.63587 2.3554335,-1.07946 3.6328135,-1.26855 z m 3,0 v 0.003 2.99707 c 1.278388,0.18875 2.510952,0.64113 3.635741,1.27735 -0.154014,-1.27243 -0.488426,-2.51636 -0.993164,-3.69442 -0.85921,-0.28138 -1.744515,-0.4786 -2.642577,-0.583 z m -1.5,4.5 c -4.9705637,0 -9.000001,4.02943 -9.000001,9 0,4.97057 4.0294373,9 9.000001,9 2.189526,-0.003 4.302903,-0.80388 5.944336,-2.25292 -0.13728,-1.09754 -0.575291,-2.13578 -1.265625,-3 -1.136991,1.42192 -2.858104,2.25068 -4.678711,2.25292 -1.818101,-9.9e-4 -3.5376926,-0.82631 -4.6757822,-2.24414 1.1357655,-1.42222 2.8557072,-2.25202 4.6757822,-2.25586 3.546903,0 6.582217,-1.95321 8.170898,-5.25 -1.464658,-3.19551 -4.655716,-5.24585 -8.170898,-5.25 z m 0,3 c 1.818058,0.003 3.536565,0.83078 4.67285,2.25 -1.136285,1.41922 -2.854793,2.2467 -4.67285,2.25 -2.1906715,0.006 -4.3041871,0.80949 -5.9443369,2.26171 -0.034712,-0.25246 -0.053305,-0.50688 -0.055664,-0.76171 0,-3.31371 2.6862915,-6 6.0000009,-6 z"
       id="path952" />
  </g>
</svg>
